<svg xmlns="http://www.w3.org/2000/svg" width="21.187" height="22.124" viewBox="0 0 21.187 22.124">
  <g id="home" transform="translate(0.1 0.147)">
    <g id="Group_737" data-name="Group 737" transform="translate(0 0)">
      <path id="Path_442" data-name="Path 442" d="M30.969,9.607,21.234.208a.73.73,0,0,0-1.019,0l-9.734,9.4a.734.734,0,0,0,.51,1.262h1.294V21.144a.734.734,0,0,0,.734.734h5.138a.734.734,0,0,0,.734-.734V15.272h3.67v5.872a.734.734,0,0,0,.734.734h5.138a.734.734,0,0,0,.734-.734V10.868h1.294a.734.734,0,0,0,.51-1.262Zm-1.8.528a.734.734,0,0,0-.734.734V21.144H23.293V15.272a.734.734,0,0,0-.734-.734h-3.67a.734.734,0,0,0-.734.734v5.872H13.018V10.868a.734.734,0,0,0-.734-.734H10.99l9.734-9.4,9.738,9.4Z" transform="translate(-10.256 -0.001)" fill="#011b34" stroke="#011b34" stroke-width="0.2"/>
    </g>
  </g>
</svg>
