<svg xmlns="http://www.w3.org/2000/svg" xmlns:xlink="http://www.w3.org/1999/xlink" width="279.545" height="237.067" viewBox="0 0 279.545 237.067">
  <defs>
    <linearGradient id="linear-gradient" x1="0.5" x2="0.5" y2="1" gradientUnits="objectBoundingBox">
      <stop offset="0" stop-color="#a2e8d1"/>
      <stop offset="1" stop-color="#82c8ea"/>
    </linearGradient>
    <linearGradient id="linear-gradient-2" x1="4.099" y1="8.336" x2="5.141" y2="8.336" gradientUnits="objectBoundingBox">
      <stop offset="0.296" stop-color="#ffd075"/>
      <stop offset="0.42" stop-color="#fcbd6f"/>
      <stop offset="0.671" stop-color="#f48c60"/>
      <stop offset="1" stop-color="#ea454a"/>
    </linearGradient>
    <linearGradient id="linear-gradient-3" x1="3.128" y1="8.006" x2="4.17" y2="8.006" xlink:href="#linear-gradient-2"/>
    <linearGradient id="linear-gradient-4" x1="15.621" y1="-13.198" x2="17.27" y2="-13.198" gradientUnits="objectBoundingBox">
      <stop offset="0" stop-color="#fff"/>
      <stop offset="1"/>
    </linearGradient>
    <linearGradient id="linear-gradient-5" x1="4.509" y1="-31.744" x2="5.845" y2="-31.744" xlink:href="#linear-gradient-4"/>
    <linearGradient id="linear-gradient-6" x1="1.726" y1="0.436" x2="3.13" y2="0.436" xlink:href="#linear-gradient-4"/>
    <linearGradient id="linear-gradient-7" x1="-7.304" y1="11.827" x2="-5.97" y2="11.827" xlink:href="#linear-gradient-4"/>
    <linearGradient id="linear-gradient-8" x1="0" x2="0.852" xlink:href="#linear-gradient"/>
    <linearGradient id="linear-gradient-9" x1="1.641" y1="1.439" x2="2.652" y2="1.439" gradientUnits="objectBoundingBox">
      <stop offset="0" stop-color="#ffd075"/>
      <stop offset="0.177" stop-color="#fcbd6f"/>
      <stop offset="0.533" stop-color="#f48c60"/>
      <stop offset="1" stop-color="#ea454a"/>
    </linearGradient>
    <linearGradient id="linear-gradient-10" x1="1.154" y1="-0.092" x2="0.258" y2="0.889" gradientUnits="objectBoundingBox">
      <stop offset="0" stop-color="#c7c9cb"/>
      <stop offset="0.127" stop-color="#cccdcf" stop-opacity="0.91"/>
      <stop offset="0.385" stop-color="#d9dadc" stop-opacity="0.667"/>
      <stop offset="0.746" stop-color="#eeeff0" stop-opacity="0.286"/>
      <stop offset="1" stop-color="#fff" stop-opacity="0"/>
    </linearGradient>
    <linearGradient id="linear-gradient-11" x1="0.5" x2="0.5" y2="1" gradientUnits="objectBoundingBox">
      <stop offset="0" stop-color="#43cea2"/>
      <stop offset="1" stop-color="#279dd4"/>
    </linearGradient>
    <linearGradient id="linear-gradient-12" x1="2.644" y1="0.5" x2="3.644" y2="0.5" xlink:href="#linear-gradient-2"/>
    <linearGradient id="linear-gradient-13" x1="0.294" y1="0.667" x2="0.959" y2="0.191" xlink:href="#linear-gradient-10"/>
    <linearGradient id="linear-gradient-14" x1="-68.421" y1="-3.726" x2="-67.448" y2="-3.49" gradientUnits="objectBoundingBox">
      <stop offset="0" stop-color="#ea454a"/>
      <stop offset="1" stop-color="#ffd075"/>
    </linearGradient>
    <linearGradient id="linear-gradient-15" x1="-40.445" y1="-5.963" x2="-40.354" y2="-7.492" gradientUnits="objectBoundingBox">
      <stop offset="0" stop-color="#fff"/>
      <stop offset="0.046" stop-color="#fffdfa"/>
      <stop offset="0.097" stop-color="#fff8ed"/>
      <stop offset="0.151" stop-color="#fff1d7"/>
      <stop offset="0.206" stop-color="#ffe6b8"/>
      <stop offset="0.262" stop-color="#ffd990"/>
      <stop offset="0.296" stop-color="#ffd075"/>
      <stop offset="0.42" stop-color="#fcbd6f"/>
      <stop offset="0.671" stop-color="#f48c60"/>
      <stop offset="1" stop-color="#ea454a"/>
    </linearGradient>
  </defs>
  <g id="Group_50" data-name="Group 50" transform="translate(-102.197 -120.8)">
    <path id="Path_3" data-name="Path 3" d="M297.444,693.552c-.877-.483-1.706-.935-2.487-1.365s-1.486-.879-2.155-1.265-1.282-.747-1.815-1.1c-.714-.45-1.312-.828-1.81-1.154-.4-2.018-4-16.943-22.028-18.382,0,0,.944,19.717,21.864,18.62.44.4.976.865,1.619,1.4.987.838,2.232,1.8,3.674,2.88.732.525,1.514,1.082,2.338,1.667.816.606,1.786,1.055,2.739,1.624.756.42,1.537.873,2.343,1.32-.976.069-2.261.163-3.556.257-.648.047-1.3.094-1.909.143l-.657.068c-17.11-14.035-28.421-2.4-28.421-2.4,19.635,12.359,26.455,5.6,28.1,3.2.335-.034.689-.073,1.064-.113.606-.045,1.255-.095,1.895-.14,1.292-.095,2.582-.188,3.552-.257a1.793,1.793,0,0,0,.346-.034c.109-.036.212-.075.309-.106s.173-.065.259-.094c.97.494,1.964,1,2.987,1.522.568.285,1.134.59,1.725.867s1.194.538,1.8.813c1.217.545,2.462,1.1,3.724,1.67,1.3.528,2.569,1.054,3.911,1.559.635.238,1.281.472,1.923.708a5.5,5.5,0,0,0-.591-.036q-.546-.022-1.1-.04c-.736-.028-1.48-.058-2.175-.083l-1.905.03a3.23,3.23,0,0,0-.395.011c-.127.031-.245.066-.36.09s-.179.057-.27.085c-3.118-1.478-15.993-6.445-27.644,5.807,0,0,15.9,11.656,28.2-5.244a.889.889,0,0,1,.109.025,2.8,2.8,0,0,0,.391-.007c.549-.011,1.185-.019,1.869-.033.683.028,1.413.051,2.147.083l1.09.039a8.968,8.968,0,0,1,1.046.089c.684.081,1.316.16,1.859.221a1.751,1.751,0,0,0,.39.04c.077-.008.148-.017.223-.026,2.476.893,4.972,1.788,7.4,2.829,1.352.542,2.651,1.19,3.954,1.807.65.315,1.273.682,1.9,1.016.629.349,1.27.673,1.864,1.066l.408.257c-.108-.012-.216-.026-.329-.034a14.078,14.078,0,0,0-1.513-.081c-.527-.034-1.071.024-1.626.035-.548.054-1.111.1-1.667.2-.5.116-1.023.2-1.516.358.026-.1.059-.189.087-.29,0,0-16.577-4.342-23.664,12.05,0,0,17.825,6.7,23.312-10.878.122-.038.238-.076.357-.113a13.088,13.088,0,0,1,1.555-.37c.528-.093,1.066-.14,1.591-.2.53-.011,1.051-.066,1.557-.034.507,0,.994.029,1.456.078.465.032.9.1,1.3.158.2.017.388.093.575.1.027,0,.053,0,.081,0,.538.347,1.071.7,1.577,1.083.567.408,1.133.807,1.693,1.21.546.426,1.073.87,1.6,1.3s1.052.853,1.571,1.275q.746.675,1.471,1.339c.966.89,1.932,1.734,2.79,2.647q1.309,1.345,2.553,2.607c.184.208.367.412.549.62-.251-.09-.506-.173-.768-.243a11.486,11.486,0,0,0-3.232-.408,1.229,1.229,0,0,0-.315.008c-.1.032-.2.068-.284.1-.118.045-.207.086-.3.127-1.6-.854-13.558-6.692-22.8,4.714,0,0,13.978,10.251,22.808-4.33.105.025.209.05.335.083.087.02.181.046.278.071a2.733,2.733,0,0,0,.3-.006,10.788,10.788,0,0,1,3.017.382,8.7,8.7,0,0,1,1.519.558,6.171,6.171,0,0,1,.659.341c.032.019.058.035.086.055l.428.476c.36.409.718.812,1.064,1.207s.648.8,1,1.164c.682.733,1.327,1.429,1.934,2.082,1.235,1.294,2.238,2.485,3.074,3.46,1.681,1.947,2.668,3.046,2.668,3.046s-.791-1.239-2.211-3.391c-.715-1.077-1.567-2.393-2.639-3.839-.359-.5-.743-1.037-1.135-1.586.008-.061.014-.112.023-.181.011-.094.024-.2.036-.305a1.671,1.671,0,0,0-.044-.328,4.312,4.312,0,0,1-.088-.724c0-.259-.008-.536-.013-.82s-.024-.581-.013-.881c.037-.292.068-.6.1-.9a5.4,5.4,0,0,1,.13-.893c.062-.293.128-.582.189-.85a5.964,5.964,0,0,1,.235-.787c.088-.245.146-.486.241-.687a1.954,1.954,0,0,0,.131-.3c0-.055.011-.1.02-.158,2.315-2.082,12.245-12.231,5.139-27.917,0,0-16.6,10.247-5.9,27.841-.034.077-.057.165-.1.246-.1.219-.164.472-.26.731a7.19,7.19,0,0,0-.248.832c-.066.293-.134.6-.2.908a6.73,6.73,0,0,0-.139.943c-.035.319-.066.636-.1.952s0,.625,0,.925.012.591.018.867a1.889,1.889,0,0,0,.032.38c-.535-.691-1.18-1.34-1.8-2.055q-1.107-1.24-2.3-2.583c-.843-.852-1.705-1.736-2.594-2.642-.871-.929-1.856-1.793-2.842-2.7-.494-.447-.995-.9-1.5-1.362-.271-.223-.549-.448-.824-.67.01-.043.015-.082.027-.125.013-.079-.041-.147-.044-.228-.13-.621-.3-1.45-.477-2.273s-.349-1.654-.482-2.276c-.017-.053-.016-.107-.028-.155,1.629-3.509,6.131-15.993-5.722-27.428,0,0-11.817,15.867,5.12,28.3.11.521.238,1.117.36,1.71.127.616.257,1.229.367,1.761-.508-.413-1.013-.838-1.543-1.248-.576-.412-1.157-.826-1.737-1.243-1.144-.869-2.4-1.606-3.638-2.391-.611-.4-1.268-.731-1.913-1.092-.65-.344-1.29-.723-1.957-1.046-1-.471-2-.947-3.008-1.395a3.294,3.294,0,0,0-.28-.233c-.53-.444-1.183-.908-1.821-1.505s-1.341-1.193-2-1.846c-1.348-1.274-2.642-2.608-3.61-3.615a4.6,4.6,0,0,0-.347-.359c-.071-.053-.14-.1-.209-.153.251-2.123,1.527-18.026-16.211-22.256,0,0-.6,22.788,15.588,22.5a.45.45,0,0,1,.029.044c.077.125.16.252.249.39s.235.228.349.363c.97,1.015,2.272,2.354,3.634,3.641.665.658,1.376,1.276,2.029,1.866.048.041.1.078.144.12-2.268-.917-4.554-1.73-6.8-2.545-1.361-.483-2.7-.985-4.009-1.473s-2.631-1.04-3.881-1.544l-3.674-1.652c-.6-.269-1.193-.538-1.783-.8s-1.139-.577-1.7-.857l-2.921-1.493a7.311,7.311,0,0,1-.663-.646,15.178,15.178,0,0,1-1.519-1.859c-.234-.314-.422-.659-.627-.976a16.306,16.306,0,0,1-.923-1.847c-.069-.134-.092-.278-.166-.4s-.149-.237-.216-.339c-.006-.006-.007-.013-.014-.021.875-3.07,2.847-13.464-8.728-17.923,0,0-4.909,13.535,8.307,18.736a1.715,1.715,0,0,1,.106.24,17.183,17.183,0,0,0,.967,1.937c.215.336.412.692.66,1.027.208.3.433.6.669.887-.393-.224-.779-.449-1.161-.662C299.188,694.615,298.31,694.045,297.444,693.552Z" transform="translate(-141.197 -462.712)" fill="#43cea2"/>
    <g id="Group_4" data-name="Group 4" transform="translate(132.885 120.8)">
      <path id="Path_4" data-name="Path 4" d="M452.4,526.366a6.678,6.678,0,1,1-6.678-6.678A6.679,6.679,0,0,1,452.4,526.366Z" transform="translate(-418.834 -456.697)" fill="#6ec8f2"/>
      <path id="Path_5" data-name="Path 5" d="M439.933,493.417a.527.527,0,0,1-.528.527H421.347a.527.527,0,0,1-.527-.527v-15.95a.527.527,0,0,1,.527-.527h18.058a.527.527,0,0,1,.528.527Z" transform="translate(-403.487 -420.7)" fill="#91dafc"/>
      <path id="Path_6" data-name="Path 6" d="M448.655,523.62a.531.531,0,0,1-.531.531H434.291a.531.531,0,0,1-.531-.531h0a.53.53,0,0,1,.531-.53h13.832a.531.531,0,0,1,.531.53Z" transform="translate(-414.383 -459.562)" fill="#fff"/>
      <path id="Path_7" data-name="Path 7" d="M448.655,540.314a.532.532,0,0,1-.531.532H434.291a.531.531,0,0,1-.531-.532h0a.531.531,0,0,1,.531-.531h13.832a.531.531,0,0,1,.531.531Z" transform="translate(-414.383 -473.619)" fill="#fff"/>
      <path id="Path_8" data-name="Path 8" d="M448.655,557.008a.532.532,0,0,1-.531.532H434.291a.531.531,0,0,1-.531-.532h0a.531.531,0,0,1,.531-.531h13.832a.531.531,0,0,1,.531.531Z" transform="translate(-414.383 -487.677)" fill="#fff"/>
      <path id="Path_9" data-name="Path 9" d="M364.836,147.69a26.89,26.89,0,1,0-39.72,23.637v3.6a7.382,7.382,0,0,0,7.381,7.381h10.9a7.382,7.382,0,0,0,7.382-7.381v-3.6A26.886,26.886,0,0,0,364.836,147.69Z" transform="translate(-311.057 -120.8)" fill="#a2e8d1"/>
      <path id="Path_10" data-name="Path 10" d="M338.512,188.434s-13.841-23.9,8.018-37.61C346.53,150.824,330.493,170.3,338.512,188.434Z" transform="translate(-330.537 -146.083)" fill="#fff" opacity="0.4"/>
      <path id="Path_11" data-name="Path 11" d="M428.361,291.324a2.639,2.639,0,0,0-3.049-1.009c-1.912.731-3.287,3.881-3.8,6.315a7.862,7.862,0,0,1-1.077-.344l-1.363-.791a5.3,5.3,0,0,0,1.443-4.057c0-2.558-1.111-4.487-2.586-4.487s-2.585,1.929-2.585,4.487a5.165,5.165,0,0,0,1.527,4.12l-1.527.718a7.846,7.846,0,0,1-1.1.353c-.517-2.434-1.892-5.584-3.8-6.315a2.638,2.638,0,0,0-3.048,1.009,3.2,3.2,0,0,0-.051,4.139,6.582,6.582,0,0,0,5.959,2.472,5.335,5.335,0,0,1,.03.537v23.756h1.14V298.473a6.853,6.853,0,0,0-.041-.714,8.915,8.915,0,0,0,1.358-.43l.028-.012,2.277-1.07,1.806,1.047a.57.57,0,0,0,.072.035,8.949,8.949,0,0,0,1.359.43,6.827,6.827,0,0,0-.042.714v23.756h1.14V298.473a5.31,5.31,0,0,1,.031-.537,6.581,6.581,0,0,0,5.959-2.472A3.2,3.2,0,0,0,428.361,291.324Zm-20.093,3.483a2.092,2.092,0,0,1-.033-2.722,1.9,1.9,0,0,1,1.369-.791,1.127,1.127,0,0,1,.422.086c1.392.533,2.6,3.289,3.077,5.427A5.4,5.4,0,0,1,408.268,294.808Zm9.657-.023c-.682,0-1.445-1.431-1.445-3.346s.763-3.346,1.445-3.346,1.445,1.431,1.445,3.346S418.606,294.785,417.924,294.785Zm9.554.023a5.4,5.4,0,0,1-4.836,2c.479-2.138,1.685-4.895,3.077-5.427.214-.081.864-.331,1.791.7A2.092,2.092,0,0,1,427.478,294.808Z" transform="translate(-391.516 -260.714)" fill="#fff"/>
      <g id="Group_3" data-name="Group 3" transform="translate(4.387 8.201)" opacity="0.4" style="mix-blend-mode: darken;isolation: isolate">
        <path id="Path_12" data-name="Path 12" d="M345.345,389.285a27,27,0,0,1-6.509-4.958,27.052,27.052,0,0,0,6.509,6.89Z" transform="translate(-338.836 -350.913)" fill="#c7c9cb"/>
        <path id="Path_13" data-name="Path 13" d="M434.312,172.731a26.9,26.9,0,0,1-9.665,38.373v3.6a7.381,7.381,0,0,1-7.382,7.381h-10.9a7.345,7.345,0,0,1-3.832-1.071,7.382,7.382,0,0,0,6.995,5.026h10.9a7.382,7.382,0,0,0,7.382-7.381v-3.6a26.894,26.894,0,0,0,6.5-42.327Z" transform="translate(-392.478 -172.731)" fill="#c7c9cb"/>
      </g>
    </g>
    <g id="Group_12" data-name="Group 12" transform="translate(117.627 197.947)">
      <g id="Group_6" data-name="Group 6" transform="translate(23.707 74.787)">
        <path id="Path_14" data-name="Path 14" d="M548.052,1116.5H521.474v-27.272h26.578a3.157,3.157,0,0,0,0-6.314H384.5a19.951,19.951,0,1,0,0,39.9H548.052a3.158,3.158,0,0,0,0-6.315Z" transform="translate(-364.552 -1082.917)" fill="#43cea2"/>
        <path id="Path_15" data-name="Path 15" d="M785.663,1112.316c-.357-.025-.711-.054-1.075-.054H667.434a15.316,15.316,0,0,0,0,30.631H784.589c.364,0,.718-.029,1.075-.055Z" transform="translate(-606.707 -1107.628)" fill="#fff"/>
        <g id="Group_5" data-name="Group 5" transform="translate(65.653 11.59)">
          <rect id="Rectangle_2" data-name="Rectangle 2" width="101.767" height="1.859" transform="translate(0 14.693)" fill="#e0e1e3"/>
          <rect id="Rectangle_3" data-name="Rectangle 3" width="101.767" height="1.859" transform="translate(1.132)" fill="#e0e1e3"/>
          <rect id="Rectangle_4" data-name="Rectangle 4" width="49.949" height="1.554" transform="translate(12.108 7.79)" fill="#e0e1e3"/>
          <path id="Path_16" data-name="Path 16" d="M1214.812,1173.033l-5.1-6.5-5.468,6.5v-16.72h10.563Z" transform="translate(-1137.3 -1156.313)" fill="#edc63e"/>
        </g>
      </g>
      <path id="Path_17" data-name="Path 17" d="M266.469,1376.74h-48.88a3.157,3.157,0,1,1,0-6.315h26.578v-27.273H217.588a3.157,3.157,0,0,1,0-6.315H381.137a19.951,19.951,0,0,1,0,39.9" transform="translate(-214.431 -1221.953)" fill="#279dd4"/>
      <path id="Path_18" data-name="Path 18" d="M263.2,1366.247c.358-.026.712-.054,1.076-.054H381.426a15.315,15.315,0,1,1,0,30.631H264.273c-.363,0-.718-.03-1.076-.054Z" transform="translate(-255.496 -1246.672)" fill="#fff"/>
      <rect id="Rectangle_5" data-name="Rectangle 5" width="101.766" height="1.859" transform="translate(19.238 141.168)" fill="#e0e1e3"/>
      <rect id="Rectangle_6" data-name="Rectangle 6" width="101.765" height="1.86" transform="translate(18.105 126.476)" fill="#e0e1e3"/>
      <rect id="Rectangle_7" data-name="Rectangle 7" width="49.949" height="1.554" transform="translate(58.949 134.266)" fill="#e0e1e3"/>
      <path id="Path_19" data-name="Path 19" d="M779.846,1426.958l5.1-6.494,5.467,6.494v-16.72H779.846Z" transform="translate(-690.558 -1283.762)" fill="#edc63e"/>
      <g id="Group_11" data-name="Group 11" transform="translate(33.979)">
        <path id="Path_20" data-name="Path 20" d="M604.372,682.756l-26-65.58s-4.836-9.526-25.538-7.583c-.225.021-.458.049-.7.073-5.616.153-19.633.505-33.831.629-14.2-.123-28.215-.476-33.831-.629-.242-.023-.476-.048-.7-.073-15.079-1.675-25.132,11.728-25.132,11.728L429.6,682.756l52.307.234v.325l36.4-.162Z" transform="translate(-429.601 -609.333)" fill="url(#linear-gradient)"/>
        <path id="Path_21" data-name="Path 21" d="M1165.372,741.737h-46.49l13.848-61.326,22.421,2.967Z" transform="translate(-1010.034 -669.186)" fill="rgba(195,229,218,0.99)"/>
        <g id="Group_7" data-name="Group 7" transform="translate(127.862 23.422)">
          <path id="Path_22" data-name="Path 22" d="M1252.647,801.749a.4.4,0,0,1-.378-.281l-12.969-43.3a.395.395,0,1,1,.756-.227l12.969,43.3a.4.4,0,0,1-.265.491A.39.39,0,0,1,1252.647,801.749Z" transform="translate(-1239.283 -757.654)" fill="#7993c1"/>
        </g>
        <g id="Group_8" data-name="Group 8" transform="translate(120.608 23.203)">
          <path id="Path_23" data-name="Path 23" d="M1206.711,800.357a.4.4,0,0,1-.378-.282l-12.969-43.3a.395.395,0,0,1,.756-.226l12.969,43.3a.4.4,0,0,1-.378.508Z" transform="translate(-1193.348 -756.263)" fill="#7993c1"/>
        </g>
        <g id="Group_9" data-name="Group 9" transform="translate(116.843 34.965)">
          <path id="Path_24" data-name="Path 24" d="M1179.384,863.187a.4.4,0,0,1-.378-.282l-9.48-31.652a.395.395,0,0,1,.757-.227l9.48,31.653a.4.4,0,0,1-.378.508Z" transform="translate(-1169.51 -830.745)" fill="#7993c1"/>
        </g>
        <g id="Group_10" data-name="Group 10" transform="translate(111.037 40.457)">
          <path id="Path_25" data-name="Path 25" d="M1141.168,893.137a.394.394,0,0,1-.378-.281l-8.032-26.819a.395.395,0,0,1,.757-.227l8.032,26.819a.394.394,0,0,1-.378.508Z" transform="translate(-1132.741 -865.528)" fill="#7993c1"/>
        </g>
        <path id="Path_26" data-name="Path 26" d="M598.231,710.664,572.556,645.89a20.269,20.269,0,0,0-10.669-3.59,24.156,24.156,0,0,0-11.064,3.224L526.2,707.513l-95.126-.055-1.476,3.06H542.47l20.223-56.2,18.216,56.567Z" transform="translate(-429.601 -637.094)" fill="#fff"/>
        <path id="Path_27" data-name="Path 27" d="M1105.368,783.387l18.245-49.679-16.047,49.679Z" transform="translate(-998.654 -714.067)" fill="#e3eaf6"/>
        <path id="Path_28" data-name="Path 28" d="M1352.413,797.745l-17.366-41.766,15.168,41.986Z" transform="translate(-1192.063 -732.821)" fill="#e3eaf6"/>
        <path id="Path_29" data-name="Path 29" d="M569.6,712.828h62.868l-19.124,45.5-66.165-.44Z" transform="translate(-528.61 -696.485)" fill="none" stroke="#fff" stroke-miterlimit="10" stroke-width="3"/>
      </g>
    </g>
    <g id="Group_18" data-name="Group 18" transform="translate(239.326 169.199)">
      <path id="Path_30" data-name="Path 30" d="M1040.13,513.479s-3.882-.29-5.264,1.961a32.851,32.851,0,0,0-2.566,6.711,2.293,2.293,0,0,0,1.382,1.619" transform="translate(-1024.845 -499.857)" fill="#1a2456"/>
      <g id="Group_13" data-name="Group 13" transform="translate(0 30.308)">
        <path id="Path_31" data-name="Path 31" d="M985.135,623.865c-.452-2.135,2.716-4.655,2.716-4.655l3.2,1.794c1.056.049-.786,1.286.006,1.835,2.678,1.855,3.907,5.774,4.084,6.377a3.487,3.487,0,0,1-1.831,1.254S985.586,626,985.135,623.865Z" transform="translate(-985.091 -619.21)" fill="url(#linear-gradient-2)"/>
        <path id="Path_32" data-name="Path 32" d="M1030.981,683.849l-.033-.023a3.488,3.488,0,0,0,1.831-1.254c.015.051.023.079.023.079l1.329.693s-3.187,4.744-4.093,4.218S1030.981,683.849,1030.981,683.849Z" transform="translate(-1022.73 -672.566)" fill="#000a3e"/>
      </g>
      <path id="Path_33" data-name="Path 33" d="M1013.215,599.069s2.527,6.632-2,8a30.812,30.812,0,0,1-9.317,1.105s-6.484-6.574-5.685-7.054C999.108,599.385,1013.215,599.069,1013.215,599.069Z" transform="translate(-994.399 -571.941)" fill="#f77e0b"/>
      <g id="Group_14" data-name="Group 14" transform="translate(4.924 31.76)">
        <path id="Path_34" data-name="Path 34" d="M1016.321,633.455c-.49-2.318,2.948-5.053,2.948-5.053l3.474,1.948c1.146.053-.853,1.4.007,1.991,2.907,2.014,4.242,6.268,4.433,6.923a3.785,3.785,0,0,1-1.988,1.361S1016.811,635.773,1016.321,633.455Z" transform="translate(-1016.273 -628.402)" fill="url(#linear-gradient-3)"/>
        <path id="Path_35" data-name="Path 35" d="M1066.087,698.568l-.036-.025a3.784,3.784,0,0,0,1.988-1.361c.016.056.025.086.025.086l1.443.752s-3.459,5.15-4.443,4.579S1066.087,698.568,1066.087,698.568Z" transform="translate(-1057.131 -686.32)" fill="#000a3e"/>
      </g>
      <path id="Path_36" data-name="Path 36" d="M1051.253,508.4c4.007,3.261,4.685.447,4.685.447l3.886,3.352-1.58,6.135.928,6.616c-10.214.232-14.476-.865-14.476-.865-.116-3.947,1.824-9.814,1.476-11.207C1046.068,512.467,1049.761,509.165,1051.253,508.4Z" transform="translate(-1035.279 -495.592)" fill="#1a2456"/>
      <g id="Group_16" data-name="Group 16" transform="translate(10.556)">
        <path id="Path_37" data-name="Path 37" d="M1057.284,445.3s-1.929,9.569,4.911,7.834c0,0,.176,1.884.842,2.211,2.9,1.421,3.475-2.234,3.475-2.234l-.29-1.293s3.844-4.359,1.014-6.626S1063.933,439.241,1057.284,445.3Z" transform="translate(-1056.228 -439.667)" fill="#ffd075"/>
        <path id="Path_38" data-name="Path 38" d="M1060.254,438.562s.461-2.553-.26-2.769-4.148.725-6.67-1.662-1.014-4.135-.079-4.938c5.8-4.983,10.9,1.354,11.344,1.395s1.741,1.717,1.6,3.188a16.3,16.3,0,0,1-2.2,4.135c-1.269,1.591-2.171,1.579-2.171,1.579s2.352-2.416.627-2.206A2.637,2.637,0,0,0,1060.254,438.562Z" transform="translate(-1051.937 -427.283)" fill="#1b2628"/>
        <g id="Group_15" data-name="Group 15" transform="translate(1.789 8.684)">
          <path id="Path_39" data-name="Path 39" d="M1063.874,482.659a.31.31,0,1,1-.224-.376A.31.31,0,0,1,1063.874,482.659Z" transform="translate(-1063.264 -482.273)" fill="#1b2628"/>
          <path id="Path_40" data-name="Path 40" d="M1078.879,485.552a.31.31,0,1,1-.224-.376A.31.31,0,0,1,1078.879,485.552Z" transform="translate(-1075.899 -484.71)" fill="#1b2628"/>
        </g>
      </g>
      <path id="Path_41" data-name="Path 41" d="M1043.881,609.736s2.527,6.632-2,8a30.818,30.818,0,0,1-9.317,1.105s-6.484-6.574-5.685-7.053C1029.775,610.052,1043.881,609.736,1043.881,609.736Z" transform="translate(-1020.223 -580.924)" fill="#f77e0b"/>
      <path id="Path_42" data-name="Path 42" d="M1013.05,550.085s-3.474-2.711-3.632-2.816-.842.158-.842.158l4.264,7.264a7.876,7.876,0,0,1,2.527,1.685" transform="translate(-1004.867 -528.301)" fill="#ed5448"/>
      <path id="Path_43" data-name="Path 43" d="M1011.576,542.157l1.737-1.421,2.421,3.158,6.685-1.421,1.632,4.9.21,2.421" transform="translate(-1007.394 -522.82)" fill="#fff"/>
      <path id="Path_44" data-name="Path 44" d="M1039.49,560.235l-6.79.79-.79,1.184,3.4,5.448,1.184-.869,5.29-.04" transform="translate(-1024.516 -539.24)" fill="#ed5448"/>
      <g id="Group_17" data-name="Group 17" transform="translate(14.723 15.814)">
        <path id="Path_45" data-name="Path 45" d="M1130.932,534.945a7.521,7.521,0,0,0-3.481-7.049c-3.738-2.284-1.153,4.4-1.157,6.255A10.261,10.261,0,0,1,1130.932,534.945Z" transform="translate(-1117.989 -527.427)" fill="#1a2456"/>
        <path id="Path_46" data-name="Path 46" d="M1086.631,569.783c0,.026,0,.051,0,.075-.07,1.53-1.641,2.54-5.307,1.274-.5-.171-.99-.8-1.6-.642s.271.4-.047.723c-.051.052-1.128.146-1.177.2-.508.6.16,1.458,1.395,2.323,2.106,1.474,8.445,3.207,10.34.154a7.322,7.322,0,0,0,1.038-3.317A10.263,10.263,0,0,0,1086.631,569.783Z" transform="translate(-1078.326 -563.059)" fill="#ffd075"/>
      </g>
    </g>
    <g id="Group_29" data-name="Group 29" transform="translate(301.615 181.103)">
      <g id="Group_23" data-name="Group 23" transform="translate(40.78)">
        <path id="Path_47" data-name="Path 47" d="M1654.375,502.951l-.567,4.343,4.171-.782-2.119-3.843Z" transform="translate(-1651.276 -502.669)" fill="#4a3f2d"/>
        <g id="Group_19" data-name="Group 19" transform="translate(0 3.843)">
          <path id="Path_48" data-name="Path 48" d="M1640.3,529.738l-2.533,19.435.021,0v-.026l7.293-1.379-2.562-18.442Z" transform="translate(-1637.77 -528.956)" fill="#eca78c"/>
          <path id="Path_49" data-name="Path 49" d="M1670.411,545.812l8.781-1.664,0,.026.069-.018L1669.8,527l-1.953.366Z" transform="translate(-1663.099 -527.004)" fill="#eca78c"/>
          <path id="Path_50" data-name="Path 50" d="M1670.411,545.812l8.781-1.664,0,.026.069-.018L1669.8,527l-1.953.366Z" transform="translate(-1663.099 -527.004)" opacity="0.3" fill="url(#linear-gradient-4)" style="mix-blend-mode: darken;isolation: isolate"/>
        </g>
        <g id="Group_20" data-name="Group 20" transform="translate(20.664 128.256)">
          <path id="Path_51" data-name="Path 51" d="M1768.76,1335.706l-.14-.731a7.842,7.842,0,0,0,.114.851,8.127,8.127,0,0,0,9.43,6.482l-1.52-8.095Z" transform="translate(-1768.621 -1331.155)" fill="#e50035"/>
          <path id="Path_52" data-name="Path 52" d="M1819.433,1317.908l1.521,8.1a.566.566,0,0,1,.064-.012,8.125,8.125,0,0,0,5.976-11.141l.3,1.569Z" transform="translate(-1811.409 -1314.85)" fill="#e50035"/>
          <path id="Path_53" data-name="Path 53" d="M1819.433,1317.908l1.521,8.1a.566.566,0,0,1,.064-.012,8.125,8.125,0,0,0,5.976-11.141l.3,1.569Z" transform="translate(-1811.409 -1314.85)" opacity="0.3" fill="url(#linear-gradient-5)" style="mix-blend-mode: darken;isolation: isolate"/>
        </g>
        <path id="Path_54" data-name="Path 54" d="M1637.889,638.615l0,.026,7.425-1.167,0,.043.68-.152.691-.109-.011-.042,7.287-1.616,0-.026Z" transform="translate(-1637.87 -614.584)" fill="#ffa62a"/>
        <g id="Group_22" data-name="Group 22" transform="translate(0.021 21.013)">
          <path id="Path_55" data-name="Path 55" d="M1753.273,1246.711l2.254,11.9.143.746,16.073-3.044-.3-1.6-2.135-11.271Z" transform="translate(-1735.054 -1147.472)" fill="#fff"/>
          <g id="Group_21" data-name="Group 21">
            <path id="Path_56" data-name="Path 56" d="M1637.9,649.228l18.219,96.2,5.462-1.116-17.949-96.164Z" transform="translate(-1637.9 -646.184)" fill="#f77e0b"/>
            <path id="Path_57" data-name="Path 57" d="M1726.625,732.736l5.072-1.035-18.175-95.966-4.909.93Z" transform="translate(-1697.447 -635.736)" fill="#ffa62a"/>
            <path id="Path_58" data-name="Path 58" d="M1674.2,642.653l17.949,96.164,5.5-1.123-18.012-96.071" transform="translate(-1668.467 -640.694)" fill="#ffa62a"/>
          </g>
        </g>
      </g>
      <g id="Group_28" data-name="Group 28" transform="translate(9.824 4.669)">
        <path id="Path_59" data-name="Path 59" d="M1735.726,1364.273l.025-4.378-4.042,1.292,2.576,3.551Z" transform="translate(-1685.919 -1229.194)" fill="#4a3f2d"/>
        <g id="Group_24" data-name="Group 24" transform="translate(34.278 111.102)">
          <path id="Path_60" data-name="Path 60" d="M1720.118,1255.382l.11-19.6-.019.006,0,.024-7.069,2.273,4.824,17.984Z" transform="translate(-1704.564 -1235.783)" fill="#eca78c"/>
          <path id="Path_61" data-name="Path 61" d="M1667.389,1250.365l-8.505,2.734-.007-.025-.069.026,11.512,15.853,1.892-.605Z" transform="translate(-1658.809 -1248.062)" fill="#eca78c"/>
          <path id="Path_62" data-name="Path 62" d="M1667.389,1250.365l-8.505,2.734-.007-.025-.069.026,11.512,15.853,1.892-.605Z" transform="translate(-1658.809 -1248.062)" opacity="0.3" fill="url(#linear-gradient-6)" style="mix-blend-mode: darken;isolation: isolate"/>
        </g>
        <g id="Group_25" data-name="Group 25">
          <path id="Path_63" data-name="Path 63" d="M1488.014,537.992l.227.71a7.233,7.233,0,0,0-.217-.832,8.125,8.125,0,0,0-10.159-5.267l2.51,7.847Z" transform="translate(-1472.161 -532.232)" fill="#e50035"/>
          <path id="Path_64" data-name="Path 64" d="M1449.956,542.431l-2.51-7.847a.432.432,0,0,1-.062.02,8.123,8.123,0,0,0-5.25,10.221,8.385,8.385,0,0,0,.7,1.575l-.487-1.521Z" transform="translate(-1441.742 -534.213)" fill="#e50035"/>
          <path id="Path_65" data-name="Path 65" d="M1449.956,542.431l-2.51-7.847a.432.432,0,0,1-.062.02,8.123,8.123,0,0,0-5.25,10.221,8.385,8.385,0,0,0,.7,1.575l-.487-1.521Z" transform="translate(-1441.742 -534.213)" opacity="0.3" fill="url(#linear-gradient-7)" style="mix-blend-mode: darken;isolation: isolate"/>
        </g>
        <path id="Path_66" data-name="Path 66" d="M1674.825,1235.844l0-.024-7.224,2.076-.011-.043-.655.234-.672.195.015.039-7.03,2.5.007.025Z" transform="translate(-1624.897 -1124.712)" fill="#ffa62a"/>
        <g id="Group_27" data-name="Group 27" transform="translate(0.433 5.65)">
          <path id="Path_67" data-name="Path 67" d="M1464,580.261l-3.71-11.529-.234-.724-15.571,5.009.5,1.554,3.512,10.92Z" transform="translate(-1444.484 -568.008)" fill="#fff"/>
          <g id="Group_26" data-name="Group 26" transform="translate(4.012 12.253)">
            <path id="Path_68" data-name="Path 68" d="M1569.882,738.8,1539.908,645.6l-5.282,1.783,29.7,93.207Z" transform="translate(-1524.404 -645.597)" fill="#c8f4e6"/>
            <path id="Path_69" data-name="Path 69" d="M1474.8,668.244l-4.9,1.653,29.9,92.982,4.757-1.528Z" transform="translate(-1469.893 -664.668)" fill="#43cea2"/>
            <path id="Path_70" data-name="Path 70" d="M1535.971,750.092l-29.7-93.207-5.318,1.794,29.753,93.107" transform="translate(-1496.048 -655.103)" fill="#279dd4"/>
          </g>
        </g>
      </g>
      <path id="Path_71" data-name="Path 71" d="M1459.661,937.746h-80.128v68.169a20.25,20.25,0,0,0,20.249,20.247h39.476a20.249,20.249,0,0,0,20.248-20.247V967.3h.155Z" transform="translate(-1379.533 -869.04)" fill="url(#linear-gradient-8)"/>
      <path id="Path_72" data-name="Path 72" d="M1480.814,938.747V964.04h-.156v38.611a20.248,20.248,0,0,1-20.248,20.248h-39.475a20.153,20.153,0,0,1-10.031-2.656,20.2,20.2,0,0,0,15.242,6.92h39.475a20.248,20.248,0,0,0,20.248-20.247V968.3h.156V938.747Z" transform="translate(-1405.951 -869.883)" fill="#c7c9cb" style="mix-blend-mode: multiply;isolation: isolate"/>
    </g>
    <g id="Group_39" data-name="Group 39" transform="translate(264.874 243.314)">
      <g id="Group_30" data-name="Group 30" transform="translate(60.347 88.207)">
        <path id="Path_73" data-name="Path 73" d="M1534.317,1469.077a11.383,11.383,0,0,0,1.334-.757l-.436-.337.342-12.8-6.535.375,1.782,12.365-.034.242C1531.773,1468.81,1533.288,1469.567,1534.317,1469.077Z" transform="translate(-1529.023 -1455.183)" fill="#ff6f59"/>
        <path id="Path_74" data-name="Path 74" d="M1547.128,1541.529l-5.138-3.98a11.338,11.338,0,0,1-1.334.757c-1.029.49-2.544-.267-3.546-.911l-.56,5.254,8.763,1.422s4.852-.062,5.106-.373a3.2,3.2,0,0,0,.388-1.111Z" transform="translate(-1535.361 -1524.411)" fill="#01162b"/>
      </g>
      <path id="Path_75" data-name="Path 75" d="M1303.078,1383.547s.51,3.434-.752,4.4-2.361-4.991-2.361-4.991" transform="translate(-1275.79 -1306.156)" fill="#1b2628"/>
      <g id="Group_31" data-name="Group 31" transform="translate(56.501 18.658)">
        <path id="Path_76" data-name="Path 76" d="M1590.863,1174.1l3.666,4.117,3-1.517.658-3.228-3.362-2.991-2.239.427a49.287,49.287,0,0,1-5.246-3.287l-2.358,3.34C1588.151,1172.709,1590.863,1174.1,1590.863,1174.1Z" transform="translate(-1572.299 -1143.483)" fill="#fed075"/>
        <path id="Path_77" data-name="Path 77" d="M1504.669,1016.23c.147,6.66,1.7,18.176,3.107,19.864,1.1,1.315,5.681,4,9.575,6.15l2.358-3.34c-2.821-2.023-6.006-4.786-7.427-7.732-2.833-5.872-1.543-12.411-2.482-14.235S1504.608,1013.484,1504.669,1016.23Z" transform="translate(-1504.668 -1014.765)" fill="#ff6f59"/>
      </g>
      <path id="Path_78" data-name="Path 78" d="M1484.736,1043.3l12.557-4.991-11.538-33.808-3.058-.7-1.771-.268" transform="translate(-1428.174 -986.654)" fill="#ff6f59"/>
      <path id="Path_79" data-name="Path 79" d="M1436.316,1191.539l7.177,26.964,1.821,20.8-11.4,1.335-1.522-18.869-7.159-20.163-8.621-9.012" transform="translate(-1374.013 -1144.966)" fill="#1b2628"/>
      <g id="Group_32" data-name="Group 32" transform="translate(35.717 87.371)">
        <path id="Path_80" data-name="Path 80" d="M1396.191,1463.2a13.932,13.932,0,0,0,2.147.237l8.019-9.855-5.406-3.69-6.134,10.884-.194.19C1394.936,1462,1395.431,1463.015,1396.191,1463.2Z" transform="translate(-1391.217 -1449.887)" fill="#ff6f59"/>
        <path id="Path_81" data-name="Path 81" d="M1378.024,1522.25c-.761-.181-1.255-1.193-1.568-2.234l-3.407,3.419,5.852,6.856s3.882,2.911,4.273,2.82a3.189,3.189,0,0,0,.985-.643l-2.27-3.082-1.781-6.822.063-.077A13.928,13.928,0,0,1,1378.024,1522.25Z" transform="translate(-1373.05 -1508.941)" fill="#01162b"/>
      </g>
      <path id="Path_82" data-name="Path 82" d="M1418.576,1145.9s-14.508-.453-16.075,6.771,4.619,26.287,4.619,26.287l-8.3,18.267,10.824,5.713L1419.27,1184l.367-27" transform="translate(-1359.035 -1106.529)" fill="#1a2456"/>
      <g id="Group_33" data-name="Group 33" transform="translate(45.6 0)">
        <path id="Path_83" data-name="Path 83" d="M1451.943,909.884l-3.31-11.038a5.907,5.907,0,0,0-5.93-2.111c-3.982.734-4.531,3.365-4.531,3.365s-4.878,9.189-1.11,11.56c0,0,5.376-1.262,7.495.71" transform="translate(-1435.634 -896.615)" fill="#1b2628"/>
        <path id="Path_84" data-name="Path 84" d="M1470.113,965.319l-2.221,7.693,4.661,3.615.581-2.208-.007-5.117" transform="translate(-1462.798 -954.47)" fill="url(#linear-gradient-9)"/>
        <path id="Path_85" data-name="Path 85" d="M1454.215,926.422l.064.271,3.115.126,1.2-3.112.2,3.169,3.087.125-.014.322h.026a2.147,2.147,0,0,1-.185,4.144,1.222,1.222,0,0,1-.152-.016c-.4,2.229-4.545,3.825-5.469,3.536C1452.479,933.854,1454.215,926.422,1454.215,926.422Z" transform="translate(-1450.929 -919.428)" fill="#ff6f59"/>
        <path id="Path_86" data-name="Path 86" d="M1476.738,949.465a.344.344,0,1,0,.359-.328A.344.344,0,0,0,1476.738,949.465Z" transform="translate(-1470.246 -940.842)" fill="#1b2628"/>
        <path id="Path_87" data-name="Path 87" d="M1459.845,947.742a.344.344,0,1,0,.359-.328A.345.345,0,0,0,1459.845,947.742Z" transform="translate(-1456.022 -939.391)" fill="#1b2628"/>
        <path id="Path_88" data-name="Path 88" d="M1462.385,970.391l2.933.131a2.2,2.2,0,0,1-2.206,1.593" transform="translate(-1458.161 -958.74)" fill="#fff"/>
        <path id="Path_89" data-name="Path 89" d="M1491.211,926.242s-.266,10.174-1.429,12.046l1.458-.076s1.962-6.108,1.918-10.382" transform="translate(-1481.231 -921.564)" fill="#1b2628"/>
        <path id="Path_90" data-name="Path 90" d="M1480.752,962.661a1.172,1.172,0,1,1-1.119-1.224A1.172,1.172,0,0,1,1480.752,962.661Z" transform="translate(-1471.654 -951.2)" fill="rgba(255,208,117,0)"/>
        <path id="Path_91" data-name="Path 91" d="M1454.179,962.831a.828.828,0,1,1-.791-.864A.829.829,0,0,1,1454.179,962.831Z" transform="translate(-1449.856 -951.646)" fill="rgba(255,208,117,0)"/>
      </g>
      <path id="Path_92" data-name="Path 92" d="M1432,1017.938c-3.327,3.649-.537,16.421-.537,16.421s-13.932,7.61-20.231.183c-2.523-2.974,8.108-29.581,8.108-29.581a29.191,29.191,0,0,0,5.2,3.156c1.214.537-.112-2.662,1.342-1.234C1425.886,1006.883,1434.2,1015.529,1432,1017.938Z" transform="translate(-1369.163 -987.851)" fill="#fff"/>
      <path id="Path_93" data-name="Path 93" d="M1470.114,1098.565l6.681-.724s-3,9.982,0,12.987-9.123,2.039-9.123,2.039" transform="translate(-1417.013 -1066.064)" fill="url(#linear-gradient-10)"/>
      <g id="Group_38" data-name="Group 38" transform="translate(0 58.185)">
        <path id="Path_94" data-name="Path 94" d="M1227.164,1514.435l-4.416-.9c-3.872,3.205-1.455,10.014-1.143,10.841a3.787,3.787,0,0,0,2.407-.109Z" transform="translate(-1208.935 -1474.3)" fill="#ffd075"/>
        <path id="Path_95" data-name="Path 95" d="M1225.934,1581.536l.013-.042a3.789,3.789,0,0,1-2.407.109c.02.054.032.083.032.083l-.7,1.469s5.862,2.032,6.3.984S1225.934,1581.536,1225.934,1581.536Z" transform="translate(-1210.871 -1531.526)" fill="#000a3e"/>
        <path id="Path_96" data-name="Path 96" d="M1275.781,1513.522l-4.5.225c-2.957,4.065,1.072,10.062,1.58,10.786a3.787,3.787,0,0,0,2.3-.7Z" transform="translate(-1250.73 -1474.287)" fill="#ffd075"/>
        <path id="Path_97" data-name="Path 97" d="M1207.01,1314.656s-10.408,4.118-10.633,4.906,1.35,14.965,2.7,17.1,10.79-1.036,10.79-1.036" transform="translate(-1188.541 -1306.825)" fill="#fff"/>
        <path id="Path_98" data-name="Path 98" d="M1268.16,1427.306s1.576,14.459,1.351,14.459-8.889-.225-8.889-.225.675-9.733,0-10.577" transform="translate(-1242.659 -1401.686)" fill="#000a3e"/>
        <path id="Path_99" data-name="Path 99" d="M1229.427,1414.693c-.269.425-2,17.582-2,17.582l-8.593-2.7s.931-7.393,1.229-8.1" transform="translate(-1207.468 -1391.065)" fill="#1a2456"/>
        <path id="Path_100" data-name="Path 100" d="M1224.982,1336.94l-6.708,4.554,1.532,5.947-3.779,13.993c4.1.093,6.967,1.926,9.645,2.22a15.038,15.038,0,0,0,6.583-.689c.112-3.826-1.084-19.462-.746-20.813C1231.608,1341.751,1224.982,1336.94,1224.982,1336.94Z" transform="translate(-1205.106 -1325.59)" fill="#f77e0b"/>
        <path id="Path_101" data-name="Path 101" d="M1292.2,1277.482s-9.232,9.474-10.257,10.308a15.061,15.061,0,0,1,4.287,4.21c1.672-3.722,6.453-12.425,6.861-12.969C1293.989,1277.839,1292.2,1277.482,1292.2,1277.482Z" transform="translate(-1260.616 -1275.522)" fill="#ffd075"/>
        <path id="Path_102" data-name="Path 102" d="M1186.908,1365.671a17.005,17.005,0,0,0-8.345,12.524s.156,3.09,1.731.953a34.892,34.892,0,0,1,5.783-6.072c1.225-1.053,3.358-1.412,3.913-3.777S1186.908,1365.671,1186.908,1365.671Z" transform="translate(-1173.559 -1349.784)" fill="#fed075"/>
        <path id="Path_103" data-name="Path 103" d="M1273.681,1339.135s7.105,5.733,7.105,11.059l.454-2.151-.288-1.215s-1.119-5.377-5.021-7.1" transform="translate(-1253.656 -1327.439)" fill="#fff"/>
        <path id="Path_104" data-name="Path 104" d="M1226.529,1366.346l.383-1.582-.142-1.439c9.452-9,1.43-10.994,1.43-10.994l1.926-1.165a7.4,7.4,0,0,1,2.684,5.606c-.123,2.554-2.083,6.066-6.159,9.949" transform="translate(-1213.95 -1337.57)" fill="#fff"/>
        <g id="Group_36" data-name="Group 36" transform="translate(9.633)">
          <path id="Path_105" data-name="Path 105" d="M1230.744,1266.281s5.9-3.513,8.381,1.424c1.922,3.827,1.378,5.029,1.378,5.029" transform="translate(-1227.133 -1265.069)" fill="#1b2628"/>
          <g id="Group_34" data-name="Group 34" transform="translate(0 0.455)">
            <path id="Path_106" data-name="Path 106" d="M1231.187,1280.846s7.534,6.6,1.357,9.54l.608,1.924s-.2.522-1.276.5a8.512,8.512,0,0,1-2.5-.62v-1.355s-5.842-.347-5.133-3.79S1222.478,1280.44,1231.187,1280.846Z" transform="translate(-1221.605 -1278.78)" fill="#ffd075"/>
            <path id="Path_107" data-name="Path 107" d="M1217.135,1268.664s1.148,4.432-1.332,6.567c-.734.632-.6,1.683-.93,1.895-.785.5-1.274-.586-1.274-.586s-1.516-.069-1.722.551.344,1.584,1.653,1.653a3.839,3.839,0,0,1,1.722.345l.379.907.011.528-4.5,3.18s-4.983-10.4-2.641-12.951S1214.494,1267.126,1217.135,1268.664Z" transform="translate(-1207.875 -1267.954)" fill="#1b2628"/>
          </g>
          <g id="Group_35" data-name="Group 35" transform="translate(9.244 5.666)">
            <path id="Path_108" data-name="Path 108" d="M1280.165,1301.412a.31.31,0,1,0,.117-.422A.31.31,0,0,0,1280.165,1301.412Z" transform="translate(-1277.96 -1300.949)" fill="#1b2628"/>
            <path id="Path_109" data-name="Path 109" d="M1266.454,1308.159a.31.31,0,1,0,.117-.422A.31.31,0,0,0,1266.454,1308.159Z" transform="translate(-1266.414 -1306.631)" fill="#1b2628"/>
          </g>
        </g>
        <g id="Group_37" data-name="Group 37" transform="translate(0 29.516)">
          <path id="Path_110" data-name="Path 110" d="M1154.683,1454.224l-5.665-2.245-2.143.562.255,5.868,4.72,2.4,2.7-1.2Z" transform="translate(-1146.875 -1451.978)" fill="#f77e0b"/>
          <path id="Path_111" data-name="Path 111" d="M1180.669,1468.135l-2.45.887.115,4.88,2.315-.957Z" transform="translate(-1173.27 -1465.583)" fill="#794a2c"/>
        </g>
        <path id="Path_112" data-name="Path 112" d="M1287.918,1578.843l0-.044a3.787,3.787,0,0,1-2.3.7l.051.072-.313,1.6s6.182.515,6.351-.61S1287.918,1578.843,1287.918,1578.843Z" transform="translate(-1263.486 -1529.257)" fill="#000a3e"/>
      </g>
      <path id="Path_113" data-name="Path 113" d="M1342.693,1201.189l5.111,2.737-1.207-2.938a49.283,49.283,0,0,1,.078-6.19l-4.079-.276C1342.751,1198.137,1342.693,1201.189,1342.693,1201.189Z" transform="translate(-1311.688 -1147.477)" fill="#ffd075"/>
      <path id="Path_114" data-name="Path 114" d="M1356.208,1003.539a10.591,10.591,0,0,0-4.615,1.61c-5.611,3.59-14.639,10.906-15.348,12.987-.552,1.62-1.291,11.71-1.1,16.153l6.037.081c.26-3.462.8-10.482,2.576-13.228,3.542-5.473,12.6-9.437,12.6-9.437Z" transform="translate(-1305.387 -986.654)" fill="#ff6f59"/>
      <path id="Path_115" data-name="Path 115" d="M1404.178,1007.049c-7.083,8.855-8.21,33.487-8.21,33.487l15.616,1.61-3.166-39.98c-.161-.054-3.273.7-3.273.7" transform="translate(-1356.632 -985.495)" fill="#ff6f59"/>
      <path id="Path_116" data-name="Path 116" d="M1338.4,1235.353l1.527,1.735s.486,2.568.9,2.673c0,0-.139.625-.729.208a6.616,6.616,0,0,1-1.284-1.943l-.382,2.152s-.59,3.47-.694,3.748-1.215-.1-1.354-.555-.763-.417-1.18-.972-1.527-1.006-1.7-1.423-.417-.694-.312-1.145,1.654-5.888,1.654-5.888" transform="translate(-1303.751 -1180.673)" fill="#ffd075"/>
    </g>
    <g id="Group_41" data-name="Group 41" transform="translate(102.197 257.592)">
      <path id="Path_117" data-name="Path 117" d="M186.961,1030.525s-9.264-46.483-.827-43.34,9.595,39.04,5.79,44.167" transform="translate(-172.187 -987.032)" fill="#a0d9c7"/>
      <path id="Path_118" data-name="Path 118" d="M130.6,1177.149s-1.651-18.981-10.728-17.991,4.126,16.5,6.437,17.991" transform="translate(-116.725 -1131.946)" fill="rgba(67,206,162,0.22)"/>
      <path id="Path_119" data-name="Path 119" d="M186.324,1300.76H173.091l-3.308-21.891h19.85Z" transform="translate(-161.404 -1232.783)" fill="url(#linear-gradient-11)"/>
      <path id="Path_120" data-name="Path 120" d="M135.284,1110.24s-2.476,7.427,4.126,6.107,4.683-1.569,4.683-1.569" transform="translate(-131.97 -1090.784)" fill="#1b5d7c"/>
      <path id="Path_121" data-name="Path 121" d="M149.387,1113.142s-2.146-28.387-5.282-29.543-8.417,1.321-7.262,3.962,8.913,25.747,8.913,25.747" transform="translate(-133.53 -1068.104)" fill="#279dd4"/>
      <path id="Path_122" data-name="Path 122" d="M283.06,1073.179s2.151,8.933-1.985,11.91-7.278-2.481-7.278-2.481l-.662-9.76" transform="translate(-248.435 -1059.296)" fill="#279dd4"/>
      <path id="Path_123" data-name="Path 123" d="M228.091,1079.418s2.316-37.715,10.422-35.4,6.617,6.782,6.617,6.782-1.985-1.82-3.143.5-7.113,28.783-7.113,28.783" transform="translate(-210.505 -1034.933)" fill="#97d6f4"/>
      <path id="Path_124" data-name="Path 124" d="M251.2,1178.028s3.311-18.762,12.267-16.978-5.561,16.078-7.993,17.355" transform="translate(-229.964 -1133.469)" fill="#fff"/>
      <rect id="Rectangle_8" data-name="Rectangle 8" width="27.35" height="6.119" transform="translate(4.629 43.66)" fill="#c7d2ec"/>
      <path id="Path_125" data-name="Path 125" d="M204,1002.664s4.3,25.309,2.812,40.2" transform="translate(-190.217 -1000.195)" fill="none" stroke="#fff" stroke-miterlimit="10" stroke-width="1"/>
      <path id="Path_126" data-name="Path 126" d="M164.193,1094.847s5.624,19.685,6.121,26.467" transform="translate(-156.697 -1077.822)" fill="none" stroke="#fff" stroke-miterlimit="10" stroke-width="1"/>
      <path id="Path_127" data-name="Path 127" d="M135.908,1175.5s6.617,9.925,7.609,14.226" transform="translate(-132.879 -1145.741)" fill="none" stroke="#fff" stroke-miterlimit="10" stroke-width="1"/>
      <path id="Path_128" data-name="Path 128" d="M250.31,1061.326s-6.782,20.346-8.6,31.43" transform="translate(-221.971 -1049.594)" fill="none" stroke="#fff" stroke-miterlimit="10" stroke-width="1"/>
      <g id="Group_40" data-name="Group 40" transform="translate(22.8 30.535)">
        <path id="Path_129" data-name="Path 129" d="M261.266,1194.223l-.159-.089a139.021,139.021,0,0,1,9.106-13.74l.145.111A138.791,138.791,0,0,0,261.266,1194.223Z" transform="translate(-261.107 -1180.393)" fill="#e3eaf6"/>
      </g>
    </g>
    <g id="Group_49" data-name="Group 49" transform="translate(120.928 238.021)">
      <rect id="Rectangle_9" data-name="Rectangle 9" width="8.949" height="16.002" rx="4.474" transform="translate(30.064 31.1)" fill="#ec411b"/>
      <path id="Path_130" data-name="Path 130" d="M621.8,1531.473l.186,7.065,8.044,4.3-13.217.442-.137-9.77" transform="translate(-556.458 -1425.926)" fill="#ff6f59"/>
      <g id="Group_48" data-name="Group 48" transform="translate(0)">
        <path id="Path_131" data-name="Path 131" d="M406.109,1238.079l1.6,1.608s.629,2.485,1.043,2.562c0,0-.1.62-.7.247a6.481,6.481,0,0,1-1.374-1.826l-.245,2.13s-.37,3.433-.455,3.711-1.2-.029-1.358-.463-.772-.362-1.213-.881-1.555-.893-1.75-1.291-.449-.655-.375-1.1,1.267-5.864,1.267-5.864" transform="translate(-375.064 -1177.88)" fill="#fed075"/>
        <path id="Path_132" data-name="Path 132" d="M453.929,951.584s15.476-3.948,17.845-2.527,7.422,30,7.422,30" transform="translate(-419.41 -935.223)" fill="#f77e0b"/>
        <rect id="Rectangle_10" data-name="Rectangle 10" width="8.843" height="33.636" rx="4.422" transform="translate(34.361 16.36)" fill="#f77e0b"/>
        <path id="Path_133" data-name="Path 133" d="M469.4,1533.465l-2.1,6.711,6.365,6.657-12.694-3.707,2.921-9.324" transform="translate(-425.339 -1427.604)" fill="url(#linear-gradient-12)"/>
        <path id="Path_134" data-name="Path 134" d="M564.885,1181.021l2.887,32.515.8,25.216-7.38.819-2-25.281-6.941-31.246" transform="translate(-502.203 -1130.816)" fill="#000a3e"/>
        <path id="Path_135" data-name="Path 135" d="M494.315,1172.758,491,1176.915l-4.269,26.849-7.414,25.444-7.5-2.107,6.825-26.6-.787-21.344.73-11.347" transform="translate(-434.475 -1119.696)" fill="#1a2456"/>
        <path id="Path_136" data-name="Path 136" d="M507.378,967.654a8.865,8.865,0,0,1,6.844,3.956c4.157,6.8,3.368,24.9,1.474,31-2.275,7.33-21.887.064-21.635-.948.061-.244,1.26-2.746.842-4.527-1.315-5.612-3.6-17.029-.316-25.108,1.368-3.369,6.883-3.725,6.883-3.725Z" transform="translate(-452.225 -951.143)" fill="#fff"/>
        <path id="Path_137" data-name="Path 137" d="M507.378,967.654a8.865,8.865,0,0,1,6.844,3.956c4.157,6.8,3.368,24.9,1.474,31-2.275,7.33-21.887.064-21.635-.948.061-.244,1.26-2.746.842-4.527-1.315-5.612-3.6-17.029-.316-25.108,1.368-3.369,6.883-3.725,6.883-3.725Z" transform="translate(-452.225 -951.143)" fill="url(#linear-gradient-13)"/>
        <path id="Path_138" data-name="Path 138" d="M422.876,1387.109" transform="translate(-393.26 -1304.36)" fill="none" stroke="#fff" stroke-miterlimit="10" stroke-width="1"/>
        <path id="Path_139" data-name="Path 139" d="M427.09,994.26c2.009,5.178-8.685,18.318-11.844,21.95s-4.264,15.476-4.264,15.476l-5.053-.79s1.737-13.581,4.264-19.9,11.528-19.582,11.528-19.582S425.721,990.734,427.09,994.26Z" transform="translate(-378.99 -971.11)" fill="#fff"/>
        <g id="Group_42" data-name="Group 42" transform="translate(41.94)">
          <path id="Path_140" data-name="Path 140" d="M554.6,928.617l.289,6.988s.79,3.632-2.408,2.724a36.259,36.259,0,0,1-3.882-1.474l1.473-8.348" transform="translate(-541.067 -918.178)" fill="url(#linear-gradient-14)"/>
          <path id="Path_141" data-name="Path 141" d="M554.783,932.917s1.8,4.23-4.354,6.283l.675-3.072" transform="translate(-542.611 -921.892)" fill="#e0e1e3" style="mix-blend-mode: multiply;isolation: isolate"/>
          <path id="Path_142" data-name="Path 142" d="M506.715,872.51c-4.353-1.113-7.914-6.9-4.314-8.839s12.928,1.675,12.928,1.675l-.695,10.588-2.3-1.838" transform="translate(-500.921 -863.101)" fill="#1b2628"/>
          <path id="Path_143" data-name="Path 143" d="M522.622,901.907c-.224-1.522-.516-2.822-.516-2.822l-.254-1.221s2.257.315,7.407-2.055c.614-.283.484,1.776.484,1.776l.024-.009a2.167,2.167,0,0,1,1.1,4.04,1.236,1.236,0,0,1-.151.031c.656,3.394-3.495,5.609-4.461,5.756C525.154,907.571,523.142,905.433,522.622,901.907Z" transform="translate(-518.547 -890.622)" fill="url(#linear-gradient-15)"/>
          <path id="Path_144" data-name="Path 144" d="M519.789,895.656s6.247-3.471,10.862-.16l.084-1.516s-7.466-2.486-11.443.682Z" transform="translate(-516.39 -888.322)" fill="#e0e1e3" style="mix-blend-mode: multiply;isolation: isolate"/>
          <path id="Path_145" data-name="Path 145" d="M547.4,922.06a.348.348,0,1,0,.244-.427A.347.347,0,0,0,547.4,922.06Z" transform="translate(-540.046 -912.38)" fill="#1b2628"/>
          <path id="Path_146" data-name="Path 146" d="M530.629,925.628a.348.348,0,1,0,.244-.427A.348.348,0,0,0,530.629,925.628Z" transform="translate(-525.927 -915.384)" fill="#1b2628"/>
          <path id="Path_147" data-name="Path 147" d="M537.771,941.212l3.662-1a2.848,2.848,0,0,1-2.085,2.834" transform="translate(-531.952 -928.035)" fill="#fff"/>
        </g>
        <path id="Path_148" data-name="Path 148" d="M498.246,972.37s7.685,10.475,1.526,20.266-8.37,10.738-8.37,10.738l-.474-5.685s14.423-14.528,5.053-24.582" transform="translate(-450.567 -955.115)" fill="#f77e0b"/>
        <path id="Path_149" data-name="Path 149" d="M587.561,964.853s10.9,8.975,9.159,19.871l.105,4.475,1.158-10.054s-4.711-13.239-10.554-15.607" transform="translate(-531.828 -947.676)" fill="#f77e0b"/>
        <g id="Group_47" data-name="Group 47" transform="translate(0 64.384)">
          <g id="Group_43" data-name="Group 43" transform="translate(17.087 40.757)">
            <path id="Path_150" data-name="Path 150" d="M349.115,1528.9l-4.5.225c-2.957,4.065,1.072,10.062,1.58,10.786a3.788,3.788,0,0,0,2.3-.7Z" transform="translate(-343.539 -1528.9)" fill="#ffd075"/>
            <path id="Path_151" data-name="Path 151" d="M361.251,1594.221l0-.043a3.789,3.789,0,0,1-2.3.7l.052.072-.314,1.6s6.183.516,6.351-.61S361.251,1594.221,361.251,1594.221Z" transform="translate(-356.294 -1583.87)" fill="#01162b"/>
          </g>
          <g id="Group_44" data-name="Group 44" transform="translate(0 38.354)">
            <path id="Path_152" data-name="Path 152" d="M255.053,1517.059l-2.987-3.374c-5.022.23-7.189,7.122-7.437,7.97a3.781,3.781,0,0,0,1.988,1.361Z" transform="translate(-243.162 -1513.685)" fill="#ffd075"/>
            <path id="Path_153" data-name="Path 153" d="M238.756,1565.542l.036-.025a3.784,3.784,0,0,1-1.988-1.361c-.016.056-.024.086-.024.086l-1.443.752s3.459,5.15,4.443,4.579S238.756,1565.542,238.756,1565.542Z" transform="translate(-235.336 -1556.186)" fill="#01162b"/>
          </g>
          <path id="Path_154" data-name="Path 154" d="M277.656,1323.7s-10.736,4.248-10.968,5.061,1.393,15.437,2.786,17.642,11.131-1.068,11.131-1.068" transform="translate(-261.718 -1315.35)" fill="#003d91"/>
          <path id="Path_155" data-name="Path 155" d="M341.638,1438.7s.721,15.1.489,15.1-9.17-.232-9.17-.232.7-10.04,0-10.91" transform="translate(-317.541 -1412.19)" fill="#000a3e"/>
          <path id="Path_156" data-name="Path 156" d="M291.439,1449.359c-.464.233-11.132,14.467-11.132,14.467l-6.152-6.964s4.759-6.036,5.4-6.5" transform="translate(-268.025 -1421.163)" fill="#1a2456"/>
          <path id="Path_157" data-name="Path 157" d="M311.739,1335.619a70.043,70.043,0,0,1-7.132,5.152l-2.973,1.294,1.581,6.135-.929,6.616c10.214.232,14.476-.865,14.476-.865.116-3.946-1.824-9.813-1.476-11.206a34.471,34.471,0,0,1,1.378-3.325A14.674,14.674,0,0,0,311.739,1335.619Z" transform="translate(-291.164 -1325.384)" fill="#ff6f59"/>
          <path id="Path_158" data-name="Path 158" d="M375.557,1282.246s-1.161.581-6.616,5.572c-1.139,1.042-2.257,2-3.314,2.857a14.667,14.667,0,0,1,4.924,3.8c1.725-3.839,4.482-9.569,4.89-10.14A2.6,2.6,0,0,0,375.557,1282.246Z" transform="translate(-345.052 -1280.439)" fill="#ffd075"/>
          <path id="Path_159" data-name="Path 159" d="M251.06,1408.038c1.915-.443,3.285-3.454,6.5-6.213a12.316,12.316,0,0,0-2.647-4.289C252.185,1400.575,248.231,1408.693,251.06,1408.038Z" transform="translate(-247.755 -1377.525)" fill="#ffd075"/>
          <path id="Path_160" data-name="Path 160" d="M284.138,1376.328a28.517,28.517,0,0,0-3.5,3.349,12.31,12.31,0,0,1,2.647,4.289,10.424,10.424,0,0,1,3.991-2.3Z" transform="translate(-273.481 -1359.665)" fill="#ff6f59"/>
          <path id="Path_161" data-name="Path 161" d="M346.429,1348.953s7.461,5.955,7.461,11.449l.039-3.514s-1.155-5.547-5.179-7.327" transform="translate(-328.886 -1336.613)" fill="#003d91"/>
          <path id="Path_162" data-name="Path 162" d="M303.657,1378.78l-.395-1.286.026-.961c3.523-3.355,4.293-5.652,4.243-7.421-.088-3.126-3.411-4.261-3.411-4.261l2.321-.773s7.043,5.552-2.706,14.838" transform="translate(-292.536 -1349.349)" fill="#003d91"/>
          <g id="Group_46" data-name="Group 46" transform="translate(6.78)">
            <path id="Path_163" data-name="Path 163" d="M302.936,1288.47s7.208,6.685.836,9.715c0,0,1.232,1.88.6,2.267s-3.553-.079-3.553-.079l.133-1.143s-6.477-.94-5.745-4.492S293.952,1288.052,302.936,1288.47Z" transform="translate(-292.483 -1285.649)" fill="#ffd075"/>
            <path id="Path_164" data-name="Path 164" d="M286.739,1282.613s-1.985-1.672-1.567-2.3,3.656-2.09,4.074-5.537-.338-3.967-1.88-3.969c-9.88-.015-8.566,7.626-8.879,7.939a4.5,4.5,0,0,0,.627,3.97c1.045,1.045,3.63,1.737,4.466,1.946a7.167,7.167,0,0,0,2.764-.5s-3.573-.192-2.11-1.132A2.636,2.636,0,0,1,286.739,1282.613Z" transform="translate(-278.271 -1270.809)" fill="#1b2628"/>
            <g id="Group_45" data-name="Group 45" transform="translate(9.954 5.766)">
              <path id="Path_165" data-name="Path 165" d="M351.139,1307.881a.31.31,0,1,0-.067-.432A.31.31,0,0,0,351.139,1307.881Z" transform="translate(-349.48 -1307.321)" fill="#1b2628"/>
              <path id="Path_166" data-name="Path 166" d="M341.434,1319.685a.31.31,0,1,0-.067-.433A.31.31,0,0,0,341.434,1319.685Z" transform="translate(-341.308 -1317.261)" fill="#1b2628"/>
            </g>
          </g>
        </g>
      </g>
      <path id="Path_167" data-name="Path 167" d="M641.054,1030.322s3.28-.219,3.454.651c.217,1.086.932,4.88.474,5.508-.375.513-2.981,1.125-2.981,1.125" transform="translate(-576.985 -1003.894)" fill="#fed075"/>
      <path id="Path_168" data-name="Path 168" d="M637.135,1031.874l.75,2.645s.592.671,1.027.217-.2-3.612-.276-4.047-1.856-.987-1.856-.987A1.779,1.779,0,0,0,637.135,1031.874Z" transform="translate(-573.204 -1003.394)" fill="#fed075"/>
      <path id="Path_169" data-name="Path 169" d="M626.2,1574.69l-6.194-4.249a13.187,13.187,0,0,1-1.489.963c-1.155.635-2.953-.137-4.152-.815l-.294,6.1,10.205,1.054s5.594-.4,5.866-.772a3.69,3.69,0,0,0,.373-1.307Z" transform="translate(-554.266 -1458.741)" fill="#01162b"/>
      <path id="Path_170" data-name="Path 170" d="M470.41,1567.414l-5.152-5.465a13.24,13.24,0,0,1-1.659.625c-1.263.375-2.857-.761-3.885-1.677l-1.581,5.9,9.75,3.193s5.55.8,5.9.489a3.687,3.687,0,0,0,.642-1.2Z" transform="translate(-422.95 -1450.705)" fill="#01162b"/>
    </g>
  </g>
</svg>
