<svg id="Group_740" data-name="Group 740" xmlns="http://www.w3.org/2000/svg" width="18.552" height="22.675" viewBox="0 0 18.552 22.675">
  <g id="alarm" transform="translate(0 0)">
    <g id="Group_735" data-name="Group 735" transform="translate(0 0)">
      <path id="Path_441" data-name="Path 441" d="M60.554,16.338c-.59-.88-1.4-2.085-1.4-5.516V9.276A7.225,7.225,0,0,0,54,2.365v-.3a2.061,2.061,0,1,0-4.123,0v.3a7.225,7.225,0,0,0-5.153,6.911v1.546c0,3.431-.807,4.636-1.4,5.516a2.917,2.917,0,0,0-.664,1.7c0,1.68,3.5,2.27,6.342,2.473a3.07,3.07,0,0,0,5.868,0c2.84-.2,6.342-.793,6.342-2.473A2.917,2.917,0,0,0,60.554,16.338ZM50.911,2.061a1.031,1.031,0,0,1,2.061,0v.082a6.493,6.493,0,0,0-2.061,0V2.061Zm1.031,19.583a2.043,2.043,0,0,1-1.8-1.07c.73.031,1.364.039,1.8.039s1.068-.009,1.8-.039A2.044,2.044,0,0,1,51.942,21.644Zm0-2.061c-4.72,0-8.245-.816-8.245-1.546a1.961,1.961,0,0,1,.49-1.125c.625-.934,1.571-2.346,1.571-6.09V9.276a6.184,6.184,0,0,1,12.368,0v1.546c0,3.744.946,5.156,1.571,6.09a1.962,1.962,0,0,1,.49,1.125C60.187,18.766,56.662,19.583,51.942,19.583Z" transform="translate(-42.666 0)" fill="#011b34"/>
    </g>
  </g>
</svg>
