<svg id="Group_856" data-name="Group 856" xmlns="http://www.w3.org/2000/svg" width="20.698" height="20.698" viewBox="0 0 20.698 20.698">
  <g id="Path_434" data-name="Path 434" fill="none">
    <path d="M10.349,0A10.349,10.349,0,1,1,0,10.349,10.349,10.349,0,0,1,10.349,0Z" stroke="none"/>
    <path d="M 10.34912109375 1.500001907348633 C 5.469700813293457 1.500001907348633 1.500001907348633 5.469700813293457 1.500001907348633 10.34912109375 C 1.500001907348633 15.22854042053223 5.469700813293457 19.19824028015137 10.34912109375 19.19824028015137 C 15.22854042053223 19.19824028015137 19.19824028015137 15.22854042053223 19.19824028015137 10.34912109375 C 19.19824028015137 5.469700813293457 15.22854042053223 1.500001907348633 10.34912109375 1.500001907348633 M 10.34912109375 1.9073486328125e-06 C 16.06478118896484 1.9073486328125e-06 20.69824028015137 4.633460998535156 20.69824028015137 10.34912109375 C 20.69824028015137 16.06478118896484 16.06478118896484 20.69824028015137 10.34912109375 20.69824028015137 C 4.633460998535156 20.69824028015137 1.9073486328125e-06 16.06478118896484 1.9073486328125e-06 10.34912109375 C 1.9073486328125e-06 4.633460998535156 4.633460998535156 1.9073486328125e-06 10.34912109375 1.9073486328125e-06 Z" stroke="none" fill="#43cea2"/>
  </g>
  <path id="Path_339" data-name="Path 339" d="M-2.888-2.275a.458.458,0,0,0,.648,0L3.03-7.544a.458.458,0,0,0,0-.648L2.382-8.84a.458.458,0,0,0-.648,0l-4.3,4.3L-4.57-6.549a.458.458,0,0,0-.648,0l-.648.648a.458.458,0,0,0,0,.648Z" transform="translate(12.231 15.688)" fill="#43cea2"/>
</svg>
