<svg xmlns="http://www.w3.org/2000/svg" width="32.432" height="28.431" viewBox="0 0 32.432 28.431">
  <g id="exchange-rate" transform="translate(-8.237 -12.694)">
    <path id="Path_460" data-name="Path 460" d="M210.295,138.048a.767.767,0,0,0-.767.767v1.531a3.8,3.8,0,0,0,.767,7.517,2.263,2.263,0,1,1-2.012,3.3.767.767,0,0,0-1.363.705,3.786,3.786,0,0,0,2.607,1.976v1.531a.767.767,0,1,0,1.534,0v-1.531a3.8,3.8,0,0,0-.767-7.517,2.263,2.263,0,1,1,2.012-3.3.767.767,0,1,0,1.363-.705,3.785,3.785,0,0,0-2.607-1.976v-1.531A.767.767,0,0,0,210.295,138.048Z" transform="translate(-185.842 -120.172)" fill="#43cea2" stroke="#43cea2" stroke-width="1"/>
    <path id="Path_461" data-name="Path 461" d="M120.6,91.719a.773.773,0,0,0,1.079-.118l2.022-2.518a.767.767,0,0,0-1.2-.96l-.8,1a13.82,13.82,0,0,0-.384-1.776,13.694,13.694,0,0,0-16.938-9.389A13.743,13.743,0,0,0,95.95,84.9a.767.767,0,0,0,1.367.7,12.2,12.2,0,0,1,7.483-6.168,12.159,12.159,0,0,1,15.04,8.337,12.277,12.277,0,0,1,.354,1.655l-1.151-.926a.767.767,0,1,0-.962,1.2l2.516,2.024Z" transform="translate(-83.698 -64.196)" fill="#43cea2" stroke="#43cea2" stroke-width="1"/>
    <path id="Path_462" data-name="Path 462" d="M56.456,249.584a.767.767,0,0,0,.481-1.365l-2.516-2.024a.773.773,0,0,0-1.079.117l-2.022,2.519a.767.767,0,1,0,1.2.96l.8-1a13.8,13.8,0,0,0,.384,1.776,13.713,13.713,0,0,0,13.143,9.925,13.733,13.733,0,0,0,12.221-7.483.767.767,0,1,0-1.367-.7,12.2,12.2,0,0,1-7.483,6.168,12.159,12.159,0,0,1-15.04-8.337,12.274,12.274,0,0,1-.354-1.655l1.151.926a.763.763,0,0,0,.48.169Z" transform="translate(-42.413 -219.867)" fill="#43cea2" stroke="#43cea2" stroke-width="1"/>
  </g>
</svg>
