<svg xmlns="http://www.w3.org/2000/svg" width="26.32" height="26.322" viewBox="0 0 26.32 26.322">
  <path id="home_2_" data-name="home (2)" d="M25.612,11.449l0,0L14.873.71a2.423,2.423,0,0,0-3.427,0L.714,11.442.7,11.453a2.422,2.422,0,0,0,1.613,4.129q.037,0,.075,0h.428v7.9a2.839,2.839,0,0,0,2.836,2.836h4.2a.771.771,0,0,0,.771-.771v-6.2a1.3,1.3,0,0,1,1.294-1.294H14.4a1.3,1.3,0,0,1,1.294,1.294v6.2a.771.771,0,0,0,.771.771h4.2A2.839,2.839,0,0,0,23.5,23.487v-7.9h.4a2.423,2.423,0,0,0,1.715-4.136Zm0,0" transform="translate(0.001)" fill="#43cea2"/>
</svg>
