<svg xmlns="http://www.w3.org/2000/svg" width="25.092" height="25.659" viewBox="0 0 25.092 25.659">
  <g id="settings_2_" data-name="settings (2)" transform="translate(0.3 0.25)">
    <g id="Group_750" data-name="Group 750" transform="translate(0)">
      <g id="Group_749" data-name="Group 749">
        <path id="Path_458" data-name="Path 458" d="M30.781,15.338l-2.313-1.808a8.817,8.817,0,0,0,.054-.95,9.1,9.1,0,0,0-.054-.95l2.315-1.809a1.133,1.133,0,0,0,.274-1.445l-2.4-4.161a1.134,1.134,0,0,0-1.391-.5l-2.729,1.1a9.308,9.308,0,0,0-1.637-.951L22.479.966A1.113,1.113,0,0,0,21.368,0H16.546a1.111,1.111,0,0,0-1.11.955l-.416,2.9a9.649,9.649,0,0,0-1.635.952l-2.736-1.1A1.115,1.115,0,0,0,9.268,4.2L6.86,8.372a1.125,1.125,0,0,0,.273,1.451L9.445,11.63a9.16,9.16,0,0,0-.054.95c0,.288.018.6.052.95L7.128,15.34a1.135,1.135,0,0,0-.273,1.445l2.4,4.161a1.136,1.136,0,0,0,1.391.5l2.729-1.1a9.449,9.449,0,0,0,1.639.951l.415,2.893a1.113,1.113,0,0,0,1.111.965h4.822a1.111,1.111,0,0,0,1.11-.955l.416-2.9a9.649,9.649,0,0,0,1.635-.952l2.736,1.1a1.118,1.118,0,0,0,1.381-.492l2.417-4.182A1.133,1.133,0,0,0,30.781,15.338Zm-.634.922-2.5,4.212-3-1.206a.526.526,0,0,0-.509.067,8.685,8.685,0,0,1-1.922,1.115.524.524,0,0,0-.321.411l-.529,3.251-4.892-.056-.458-3.194a.526.526,0,0,0-.321-.411,8.353,8.353,0,0,1-1.917-1.112.522.522,0,0,0-.32-.109.513.513,0,0,0-.2.038l-3.087,1.165-2.4-4.161a.089.089,0,0,1,.007-.108l2.544-1.989a.525.525,0,0,0,.2-.478,8.844,8.844,0,0,1-.081-1.116,9.056,9.056,0,0,1,.081-1.116.524.524,0,0,0-.2-.478L7.765,8.9l2.5-4.212,3,1.206a.523.523,0,0,0,.511-.067A8.62,8.62,0,0,1,15.7,4.711a.526.526,0,0,0,.32-.411l.53-3.252,4.893.057L21.9,4.3a.526.526,0,0,0,.321.411,8.321,8.321,0,0,1,1.917,1.112.52.52,0,0,0,.515.07l3.087-1.165,2.4,4.161A.087.087,0,0,1,30.134,9L27.59,10.985a.524.524,0,0,0-.2.478,8.916,8.916,0,0,1,.081,1.116,8.9,8.9,0,0,1-.081,1.116.525.525,0,0,0,.2.478l2.541,1.988A.083.083,0,0,1,30.147,16.26Z" transform="translate(-6.705)" fill="#fffdfd" stroke="#fffdfd" stroke-width="0.5"/>
        <path id="Path_459" data-name="Path 459" d="M154.594,149.333a5.242,5.242,0,1,0,5.242,5.242A5.247,5.247,0,0,0,154.594,149.333Zm0,9.435a4.193,4.193,0,1,1,4.193-4.193A4.2,4.2,0,0,1,154.594,158.768Z" transform="translate(-142.342 -141.995)" fill="#fffdfd" stroke="#fffdfd" stroke-width="0.5"/>
      </g>
    </g>
  </g>
</svg>
