<svg xmlns="http://www.w3.org/2000/svg" width="280" height="345.165" viewBox="0 0 280 345.165">
  <g id="Layer_2" data-name="Layer 2" transform="translate(0.03 0.011)">
    <g id="Layer_1" data-name="Layer 1" transform="translate(-0.03 -0.011)">
      <path id="Path_1404" data-name="Path 1404" d="M379.065,149.395a19.273,19.273,0,1,0,4.065,14.189,19.287,19.287,0,0,0-4.065-14.189" transform="translate(-103.255 -42.433)" fill="#3da1e1"/>
      <path id="Path_1405" data-name="Path 1405" d="M209.9,348.875a19.28,19.28,0,1,0,27.1,3.1,19.28,19.28,0,0,0-27.1-3.1" transform="translate(-60.691 -102.936)" fill="#ec2d6b"/>
      <path id="Path_1406" data-name="Path 1406" d="M34.357,209.817a19.259,19.259,0,1,0,4.074,14.193,19.287,19.287,0,0,0-4.074-14.193" transform="translate(0.03 -60.48)" fill="#f4b522"/>
      <path id="Path_1407" data-name="Path 1407" d="M173.451,34.362a19.266,19.266,0,1,0-14.189,4.068,19.28,19.28,0,0,0,14.189-4.068" transform="translate(-42.579 0.011)" fill="#88cf2c"/>
      <path id="Path_1408" data-name="Path 1408" d="M113.433,173.183V154.415a50.391,50.391,0,0,1,21.945-41.568c-11.783-3.507-21.945-13.136-21.945-26.139V64.826a16.986,16.986,0,1,0-33.973-.049V194.525H96.215c10.148,0,17.218-11.221,17.218-21.314" transform="translate(-23.794 -14.273)" fill="#f4b522"/>
      <path id="Path_1409" data-name="Path 1409" d="M194.511,279.669c0-10.176-11.221-17.274-21.307-17.274H154.4a50.426,50.426,0,0,1-41.547-21.875c-3.507,11.761-13.136,21.875-26.1,21.875H64.82a17.02,17.02,0,1,0-.056,34.039l129.748,0V279.669" transform="translate(-14.246 -71.826)" fill="#ec2d6b"/>
      <path id="Path_1410" data-name="Path 1410" d="M262.371,164.022v18.726a50.391,50.391,0,0,1-21.931,41.561c11.783,3.507,21.931,13.129,21.931,26.139v21.931a17.02,17.02,0,1,0,34.04.049l0-129.748H279.645c-10.176,0-17.274,11.264-17.274,21.363" transform="translate(-72.041 -42.605)" fill="#3da1e1"/>
      <path id="Path_1411" data-name="Path 1411" d="M289.4,96.415A16.993,16.993,0,0,0,272.428,79.45H142.68V96.156c0,10.183,11.264,17.281,21.37,17.281h18.719a50.405,50.405,0,0,1,41.575,21.938c3.507-11.783,13.129-21.938,26.125-21.938H272.4a17.029,17.029,0,0,0,17.022-17.022" transform="translate(-42.928 -23.721)" fill="#88cf2c"/>
      <path id="Path_1412" data-name="Path 1412" d="M256.677,461.972l-10.421-23.509h3.453l8.727,19.588,8.474-19.588h3.5l-15.177,34.709H251.8Zm-13.916-1.066a4.981,4.981,0,0,1-4.727.21,6.919,6.919,0,0,1-2.689-6.144V444.207h6.03V441.4H235.33V429.114h-3.278V455.54a9.83,9.83,0,0,0,1.268,5.106,7.159,7.159,0,0,0,5.939,3.892,11.765,11.765,0,0,0,4.531-.9c-.28-.659-.616-1.564-1.03-2.728ZM213.976,441a9.35,9.35,0,0,0-7,3.023,10.072,10.072,0,0,0-2.885,7.308,10.411,10.411,0,0,0,1.492,5.316,11.581,11.581,0,0,0,5.057,4.313q8.937,1.985,12.712-8.15a17.289,17.289,0,0,0-.7-6.207,10.281,10.281,0,0,0-1.786-2.553A9.1,9.1,0,0,0,213.976,441Zm0-3.191a12.6,12.6,0,0,1,9.721,4.208,13.118,13.118,0,0,1,3.565,9.209q.049,13.171,0,13.382h-3.446v-5.772q-2.71,5.064-9.84,5.653a12.4,12.4,0,0,1-9.525-3.977,13.662,13.662,0,0,1-.2-18.473A12.6,12.6,0,0,1,213.976,437.811Zm-17.761,3.43-2.1,2.181c-1.751-1.7-3.46-2.546-5.113-2.546a3.926,3.926,0,0,0-2.738,1.038,3.27,3.27,0,0,0-1.135,2.476,3.509,3.509,0,0,0,.953,2.328A12.388,12.388,0,0,0,190,449.425a14.553,14.553,0,0,1,4.952,3.647,6.767,6.767,0,0,1,1.275,4.012,7.158,7.158,0,0,1-2.192,5.274,7.467,7.467,0,0,1-5.477,2.167,9.877,9.877,0,0,1-4.2-.933,8.721,8.721,0,0,1-3.3-2.637l2.059-2.342q2.5,2.805,5.309,2.805a4.759,4.759,0,0,0,3.32-1.262,3.9,3.9,0,0,0,1.4-2.953,3.818,3.818,0,0,0-.9-2.5,14.591,14.591,0,0,0-4.1-2.742,12.414,12.414,0,0,1-4.685-3.507,6.479,6.479,0,0,1-1.254-3.935,6.387,6.387,0,0,1,1.989-4.811,6.866,6.866,0,0,1,4.966-1.915q3.481.021,7.06,3.451ZM163.809,441a9.372,9.372,0,0,0-6.969,3.023,10.079,10.079,0,0,0-2.921,7.308,10.412,10.412,0,0,0,1.492,5.316,11.63,11.63,0,0,0,5.071,4.313q8.937,1.985,12.712-8.15a17.613,17.613,0,0,0-.7-6.207,10.667,10.667,0,0,0-1.786-2.553,9.148,9.148,0,0,0-6.9-3.051Zm0-3.191a12.6,12.6,0,0,1,9.728,4.208,13.146,13.146,0,0,1,3.565,9.209q.056,13.171,0,13.382h-3.453v-5.772q-2.7,5.064-9.84,5.653a12.409,12.409,0,0,1-9.525-3.977,13.652,13.652,0,0,1-.2-18.473,12.6,12.6,0,0,1,9.721-4.229Zm-27.6,26.651V449.8a13.725,13.725,0,0,1,1.058-3.731,12.567,12.567,0,0,1,4.363-5.849,8.778,8.778,0,0,1,4.531-1.845,5.759,5.759,0,0,1,2.879.877l-1.695,2.735q-2.157-.786-4.272,1.276a11.223,11.223,0,0,0-2.928,4.5,35.61,35.61,0,0,0-.6,8.093v8.612ZM117.7,461.4a9.908,9.908,0,0,1-8.727-5.155,10.173,10.173,0,0,1-1.4-5.141,10.412,10.412,0,0,1,1.4-5.162,9.869,9.869,0,0,1,3.7-3.822,9.648,9.648,0,0,1,4.966-1.361,10.116,10.116,0,0,1,5.092,1.361,9.377,9.377,0,0,1,3.7,3.689,10.455,10.455,0,0,1,1.3,5.2,10.142,10.142,0,0,1-2.921,7.4A9.61,9.61,0,0,1,117.7,461.4Zm10.555-1.838a17.38,17.38,0,0,0,2.5-6.838V428.63h-3.236v14.188a13.534,13.534,0,0,0-4.615-3.759,12.86,12.86,0,0,0-14.771,2.672,13.1,13.1,0,0,0-3.824,9.5,12.914,12.914,0,0,0,3.845,9.4,12.535,12.535,0,0,0,9.259,3.892,14.424,14.424,0,0,0,5.834-1.192,14.6,14.6,0,0,0,5.008-3.773Zm-52.03-10.941h18.91a10.646,10.646,0,0,0-1.9-4.208,9.036,9.036,0,0,0-3.306-2.525,10.157,10.157,0,0,0-4.335-.961,9.279,9.279,0,0,0-6.415,2.406,10.952,10.952,0,0,0-2.956,5.288Zm18.91,6.838,2.738,1.466a14.412,14.412,0,0,1-3.1,4.285,12.512,12.512,0,0,1-4.006,2.476,14.121,14.121,0,0,1-5.022.842q-6.205,0-9.707-4.068a13.957,13.957,0,0,1-.539-17.828,12.124,12.124,0,0,1,10.085-4.818,12.5,12.5,0,0,1,10.344,4.909,13.576,13.576,0,0,1,2.8,8.669H75.871a10.444,10.444,0,0,0,2.8,7.3,8.973,8.973,0,0,0,6.738,2.805,10.493,10.493,0,0,0,3.775-.7,10.3,10.3,0,0,0,3.145-1.746,15.315,15.315,0,0,0,2.787-3.591Zm-63.012,9.005H28.82l4.9-34.4h.553l13.965,28.208,13.811-28.208h.511l4.952,34.4H64.139l-3.362-24.61-12.144,24.61h-.875L35.466,439.69Z" transform="translate(-8.586 -128.007)" fill="#3da1e1"/>
      <path id="Path_1413" data-name="Path 1413" d="M170.586,213.25H159.47V167.2h12.294l16.068,33.784L203.8,167.2h12.4v46.05H205.022v-23.5l-11.039,23.5H181.59l-11-23.5Z" transform="translate(-47.774 -49.928)" fill="#3da1e1"/>
    </g>
  </g>
</svg>
